# xmcd CD database file
#
# Track frame offsets:
#	150
#	25393
#	51025
#	70309
#	95156
#	114375
#	137466
#	180605
#
# Disc length: 2817 seconds
#
# Revision: 6
# Processed by: cddbd v1.5.2PL0 Copyright (c) Steve Scherf et al.
# Submitted via: CDex 1.70beta2
#
DISCID=6b0aff08
DTITLE=LOUDNESS - 8186 LIVE [Disc1]
DYEAR=1986
DGENRE=Metal
TTITLE0=LOUDNESS
TTITLE1=ROCK SHOCK
TTITLE2=DARK DESIRE
TTITLE3=STREETLIFE DREAMS
TTITLE4=CRAZY DOCTOR
TTITLE5=GERALDINE
TTITLE6=BASS SOLO~DRUM SOLO
TTITLE7=SHADOWS OF WAR (Ashes in The Sky)
EXTD=YEAR: 1986
EXTT0=
EXTT1=
EXTT2=
EXTT3=
EXTT4=
EXTT5=
EXTT6=
EXTT7=
PLAYORDER=
